<?xml version="1.0" encoding="UTF-8"?>
<svg width="136px" height="42px" viewBox="0 0 136 42" version="1.1" xmlns="http://www.w3.org/2000/svg" xmlns:xlink="http://www.w3.org/1999/xlink">
    <!-- Generator: Sketch 50.2 (55047) - http://www.bohemiancoding.com/sketch -->
    <title>Group</title>
    <desc>Created with Sketch.</desc>
    <defs>
        <polygon id="path-1" points="0 0.118516364 7.91551111 0.118516364 7.91551111 7.89058909 0 7.89058909"></polygon>
    </defs>
    <g id="情感化/没有回答" stroke="none" stroke-width="1" fill="none" fill-rule="evenodd">
        <g id="Nav/首页/登录状态" transform="translate(-361.000000, -14.000000)">
            <g id="Group-2" transform="translate(360.000000, 14.000000)">
                <g id="Group" transform="translate(0.920000, 0.000000)">
                    <path d="M77.942992,18.5769071 C77.7963084,18.5769071 77.6713557,18.6833627 77.644813,18.8300945 L77.3612248,20.4003938 L83.6794834,20.4003938 L77.7356171,26.8109489 C77.5273109,27.0274929 77.415552,27.3113219 77.4200534,27.6156838 C77.4309189,28.2394127 77.940198,28.7473671 78.5550272,28.7473671 L92.2127413,28.7473671 C92.8266392,28.7473671 93.3183784,28.2394127 93.3073577,27.6156838 C93.3037876,27.3955071 93.2367323,27.1824379 93.1147288,26.9966934 L93.02765,26.8651244 L93.0312201,26.8613337 L90.777726,23.3508255 L88.295747,23.3508255 L90.5923925,26.9238803 L80.3405309,26.9238803 L86.3918099,20.4003938 L95.1782328,20.4003938 C95.3250716,20.4003938 95.4508004,20.2948859 95.4773431,20.148312 L95.76,18.5769071 L77.942992,18.5769071 Z M57.6421423,20.3125759 L56.5292099,20.3125759 L57.3256473,15.8899294 L58.439511,15.8899294 L57.6421423,20.3125759 Z M59.198385,20.3125759 L59.9938911,15.8899294 L61.1169129,15.8899294 L60.4755409,19.4565084 C60.4002589,19.9568814 59.9883032,20.3125759 59.4947013,20.3125759 L59.1634604,20.3125759 L59.198385,20.3125759 Z M69.3015452,21.3134798 L67.3544567,21.3134798 C67.2085492,21.3134798 67.0828205,21.4199354 67.0562777,21.5655616 L66.9012122,22.4115205 L62.3290313,22.4115205 C62.1831239,22.4115205 62.0584816,22.5179761 62.0308523,22.66455 L61.7528521,24.1967843 L65.4744236,24.1967843 C64.4072813,25.1713113 63.0255066,26.0602314 61.3683704,26.83701 C61.3481917,26.6324699 61.2600264,25.8706962 61.1757415,25.1349837 C61.1436108,24.8576305 61.1113249,24.5766445 61.0821434,24.3198243 L61.0830748,24.3198243 C61.0307654,23.8586219 60.987614,23.4795515 60.9747307,23.343244 L60.6765517,23.3730958 L60.6746891,23.3730958 L59.900293,23.4506473 C59.8195783,23.4580708 59.7452275,23.4981891 59.6938495,23.5635787 C59.6424714,23.6280207 59.6194988,23.7101526 59.6286568,23.7924425 L59.8214409,25.5083681 L58.5807618,25.6317239 L59.1763437,22.3330213 L60.0570659,22.3330213 C60.8876519,22.3330213 61.5977866,21.7336162 61.7474193,20.9064529 L63.0126233,13.8713793 L60.7032497,13.8713793 L61.2334836,10.92 L59.2010238,10.92 C59.0551163,10.92 58.9295428,11.0255079 58.9028448,11.1720818 L58.4165383,13.8713793 L56.5118251,13.8713793 C56.3649864,13.8713793 56.2392576,13.9767293 56.2127149,14.1234611 L54.7354794,22.3330213 L56.8916502,22.3330213 L56.255711,25.8623251 L53.6930172,26.1161443 C53.5581304,26.1302015 53.4490103,26.2320767 53.424175,26.3683841 L53.12879,28.0126022 L60.0286605,27.3383306 L60.261802,29.4 C60.3819429,29.3456666 60.5003762,29.2869107 60.6205171,29.2300501 C60.6270363,29.2272071 60.635263,29.2281547 60.6425584,29.224522 C60.7260671,29.1851934 60.8086446,29.1422321 60.891222,29.1011661 C61.0077927,29.0452532 61.1242082,28.9872871 61.2400029,28.9293209 C61.4216111,28.8369224 61.6004253,28.7435763 61.7803261,28.6456498 C61.8188209,28.6260645 61.8582469,28.6064792 61.8968969,28.5848406 L61.8968969,28.5829452 C63.6687412,27.6128408 65.2909527,26.4317205 66.3874317,25.2872436 L65.6459424,29.4 L67.5911683,29.4 C67.7370757,29.4 67.8628045,29.2935444 67.8893472,29.1469705 L68.5904791,25.2872436 C69.2363525,26.5307526 70.473151,27.6875493 72.2671918,28.7230434 C72.3146894,28.7502101 72.3660674,28.7641093 72.4174455,28.7641093 C72.5084048,28.7641093 72.5982776,28.7220957 72.656951,28.6437545 C72.7514804,28.5205566 72.8514426,28.4055719 72.9496973,28.2879021 C73.0633188,28.1508049 73.1808209,28.0181303 73.2992543,27.890194 C73.3597904,27.8248044 73.4212577,27.7605203 73.4828804,27.6979737 C73.6443099,27.5337099 73.8085334,27.3729208 73.9774135,27.2253992 C73.780128,27.1508487 73.5892065,27.0714019 73.403873,26.9892699 C73.3956463,26.9854792 73.3891271,26.9816885 73.3809004,26.9780558 C73.2000683,26.8976612 73.024048,26.813634 72.8514426,26.7277113 L72.8514426,26.731502 C71.5174759,26.0648119 70.485103,25.2142726 69.780401,24.1967843 L73.7507913,24.1967843 C73.8976301,24.1967843 74.0232036,24.0884334 74.0499016,23.9417015 L74.3223139,22.4115205 L69.1033283,22.4115205 L69.3015452,21.3134798 Z M71.7054481,16.0627223 C71.6101426,16.5536186 71.1806469,16.9131037 70.6851825,16.9131037 L69.5969301,16.9131037 L69.9502125,14.9561525 L71.9045963,14.9561525 L71.7054481,16.0627223 Z M74.6591428,10.92 L72.8854359,10.92 C72.7387523,10.92 72.6128683,11.0255079 72.5872569,11.1720818 L72.2266792,13.1738897 L70.2722954,13.1738897 L70.6769558,10.92 L68.9069741,10.92 C68.7601354,10.92 68.6334753,11.0264556 68.6078638,11.1730295 L68.2527189,13.1738897 L66.7691194,13.1738897 L67.0902711,11.3859408 L65.2431447,11.3859408 C65.0972373,11.3859408 64.9716637,11.4923964 64.9449658,11.6380226 L64.6669655,13.1738897 L63.8787548,13.1738897 C63.731916,13.1738897 63.6063425,13.2801873 63.5805758,13.4269192 L63.3053695,14.9561525 L64.3458139,14.9561525 L63.2685822,20.9363047 L73.7332514,20.9363047 C73.8791588,20.9363047 74.0048876,20.8298491 74.0315855,20.6842228 L74.2948398,19.2276447 L65.6752792,19.2276447 L66.4461052,14.9561525 L67.9306359,14.9561525 L67.322326,18.3117157 L72.0789091,18.3117157 C72.7964944,18.3117157 73.4148937,17.7936528 73.5507118,17.0802106 L73.9342622,14.9561525 L75.5463844,14.9561525 C75.6922918,14.9561525 75.8187967,14.8496969 75.8444081,14.703281 L76.1207009,13.1738897 L74.2563451,13.1738897 L74.6591428,10.92 Z M80.8425146,15.033704 L93.5009179,15.033704 L94.5159061,15.033704 C94.672679,15.033704 94.8067897,14.919825 94.8350398,14.7629846 L95.1378754,13.0814913 L80.5828304,13.0814913 C80.4259023,13.0814913 80.2919468,13.1953703 80.2633862,13.3522107 L79.9607058,15.033704 L80.8425146,15.033704 Z M37.7900356,16.9001521 C39.7545088,15.9543714 41.6840573,14.6873284 43.526527,13.1345611 C44.7313501,14.7302897 46.1269394,15.996385 47.6720063,16.9001521 L37.7900356,16.9001521 Z M52.3764353,16.4370544 C52.2002598,16.3800359 52.0248604,16.3193846 51.8533415,16.2558903 C49.5531259,15.3958743 47.4352947,13.7658714 45.4029901,11.2831179 C45.3450928,11.2131478 45.2598766,11.1730295 45.1698486,11.1730295 L42.2026497,11.1730295 C42.128299,11.1730295 42.0567422,11.200986 42.0016389,11.250581 C39.0800749,13.8945974 36.0871093,15.6901277 32.850913,16.7404687 C32.7287543,16.7796393 32.6435381,16.8944661 32.6398128,17.0261931 C32.6224281,17.7282631 32.5443521,18.9177546 32.534418,19.1016037 C32.8490503,18.9755628 33.2783908,18.8029278 33.7400171,18.6162356 C34.6950901,18.2305314 35.7117857,17.8178185 36.2302228,17.6003268 L36.0036006,18.9187022 L40.9419472,18.9187022 L40.6069809,20.7775689 L34.2711824,20.7775689 C34.1235675,20.7775689 33.9978387,20.8868676 33.9720721,21.0343892 L33.6684604,22.7999097 L40.2426779,22.7999097 L39.5002573,26.9174045 L38.7342432,26.9174045 C38.0047059,25.7381795 37.601132,25.1433548 37.2523511,24.6644625 L37.2532825,24.6644625 C37.2368291,24.6410865 37.2220831,24.6215012 37.206561,24.5990728 C37.1753617,24.5570592 37.1450936,24.5150456 37.113739,24.4739796 C37.0266602,24.3563098 36.9394262,24.2395877 36.8486221,24.1201805 C36.4788864,23.6542398 36.1816387,23.2649028 36.1925042,23.3152876 L34.4548085,24.2340596 C34.3767324,24.2751256 34.3199217,24.3496761 34.299743,24.4365464 C34.2795643,24.525312 34.2978803,24.6177105 34.3501897,24.6905236 C34.4482892,24.8249356 34.5721553,24.9986763 34.7208567,25.2059014 C34.9162796,25.4794639 35.1429018,25.7950401 35.3906341,26.1395204 C35.5172941,26.313261 35.6273456,26.471049 35.8935491,26.9174045 L31.6681312,26.9174045 C31.5214477,26.9174045 31.3957189,27.0237022 31.3690209,27.1694863 L31.08,28.7772189 L50.2008619,28.7772189 C50.3467694,28.7772189 50.4734295,28.6707632 50.4990409,28.5232417 L50.7880618,26.9174045 L46.4581804,26.9174045 C46.9646655,26.6354708 47.5068515,26.1769536 48.0574193,25.5747054 L48.0574193,25.5784961 C48.0869112,25.5467489 48.1115913,25.5167392 48.1399967,25.48515 C48.1969627,25.420708 48.2547048,25.356266 48.3116708,25.2880334 C48.3712755,25.2199586 48.4252923,25.154569 48.4796196,25.0891793 C48.5153203,25.0454283 48.5511763,25.0015193 48.5868771,24.9566626 C48.6767499,24.8446789 48.7566885,24.741856 48.8282453,24.6466146 L48.84563,24.6251339 L48.8465613,24.6233965 C48.9310014,24.5093595 49.0062834,24.4076423 49.0593689,24.3338815 L47.453766,23.4599662 C47.4078206,23.4358004 47.3583052,23.4236386 47.3104973,23.4236386 C47.2151918,23.4236386 47.1215937,23.469285 47.0629203,23.5533123 C46.4802217,24.3844242 44.6579307,26.2993617 42.7457669,26.9174045 L42.2043571,26.9174045 L42.9458464,22.7999097 L49.3171905,22.7999097 C49.4640293,22.7999097 49.589758,22.6934541 49.6153694,22.5468802 L49.9355897,20.7775689 L43.3099942,20.7775689 L43.6458918,18.9187022 L48.2408901,18.9187022 C48.3877289,18.9187022 48.5125264,18.8122466 48.5390691,18.6666204 L48.7465992,17.5200903 C48.9126853,17.5733181 49.1383762,17.6731399 49.4393492,17.8253999 C49.4475759,17.8299803 49.4567339,17.833771 49.4658919,17.8374038 C50.186116,18.1176 50.7174364,18.3145587 51.1394815,18.4565522 C51.1706809,18.4677664 51.2028115,18.4723468 51.2349422,18.4723468 C51.3293164,18.4723468 51.4212071,18.4274901 51.4798805,18.3463059 C51.6403787,18.1231282 52.6195109,17.0400923 52.9672052,16.6106371 C52.7801643,16.5621477 52.5957621,16.5070245 52.4130673,16.450006 C52.4011153,16.4454255 52.3891633,16.4416348 52.3764353,16.4370544 Z" id="Fill-1" fill="#2386EE"></path>
                    <g id="Group-5" transform="translate(0.080000, 13.000000)">
                        <mask id="mask-2" fill="white">
                            <use xlink:href="#path-1"></use>
                        </mask>
                        <g id="Clip-4"></g>
                        <path d="M7.91551111,4.00462545 C7.91551111,6.15095273 6.14365926,7.89058909 3.95802963,7.89058909 C1.77180741,7.89058909 -4.44444444e-05,6.15095273 -4.44444444e-05,4.00462545 C-4.44444444e-05,1.85815273 1.77180741,0.118516364 3.95802963,0.118516364 C6.14365926,0.118516364 7.91551111,1.85815273 7.91551111,4.00462545" id="Fill-3" fill="#00CCFE" mask="url(#mask-2)"></path>
                    </g>
                    <path d="M19.08,28.4997028 C19.08,30.9849726 17.0648572,33 14.5797771,33 C12.0951428,33 10.08,30.9849726 10.08,28.4997028 C10.08,26.0144329 12.0951428,24 14.5797771,24 C17.0648572,24 19.08,26.0144329 19.08,28.4997028" id="Fill-6" fill="#05C8C8"></path>
                    <path d="M106.076238,26.6295906 L110.274705,26.6295906 L111.754299,18.2652691 L107.809734,18.2652691 L107.971571,17.3508315 C108.017069,17.0940094 108.234481,16.9071297 108.488231,16.9071297 L111.994613,16.9071297 L112.814031,12.2752159 C112.859529,12.0182367 113.077094,11.8315141 113.33069,11.8315141 L114.27622,11.8315141 L113.378478,16.9071297 L117.6,16.9071297 L117.438162,17.8215672 C117.392664,18.0785465 117.175252,18.2652691 116.921503,18.2652691 L113.138164,18.2652691 L111.658571,26.6295906 L116.4337,26.6295906 L116.271862,27.5441853 C116.226517,27.8013218 116.009105,27.9880443 115.755355,27.9880443 L105.397893,27.9880443 L105.559578,27.0734496 C105.605076,26.8163132 105.822488,26.6295906 106.076238,26.6295906 Z M105.63378,20.3940319 L106.273344,19.9099364 C106.410295,20.1279365 107.157955,21.219509 107.585146,21.8519766 C107.743014,22.0858514 107.696753,22.4049143 107.480256,22.5823636 L106.72939,23.1981708 C106.377622,22.5581588 105.968753,21.8664366 105.504615,21.1242617 C105.354228,20.8834713 105.40965,20.5637797 105.63378,20.3940319 Z M105.022766,12.1389462 L105.915469,11.76 C106.11685,12.3533313 106.322506,13.0133044 106.53259,13.7380331 C106.607554,13.9967413 106.48755,14.2730529 106.249374,14.3859037 L105.30247,14.8338493 C105.108265,14.0835012 104.915128,13.4063962 104.723366,12.8031629 C104.638019,12.5350243 104.769169,12.2464531 105.022766,12.1389462 Z M101.966934,16.4782022 L102.103427,15.7066357 C102.148772,15.4496565 102.366184,15.2629339 102.619934,15.2629339 L107.648812,15.2629339 L107.648659,15.2630911 C107.489112,16.1657406 107.115358,17.0127505 106.562514,17.7324497 C106.107995,18.3240521 105.621718,18.9068528 105.103532,19.4808517 L103.575692,28.116141 C103.530194,28.3732774 103.312782,28.56 103.059033,28.56 L102.182361,28.56 L103.497522,21.1248904 C102.662378,21.9360647 101.824333,22.6263723 100.985525,23.1981708 L100.807046,22.0962248 C100.774525,21.8951995 100.85636,21.6937026 101.015755,21.572993 C102.97048,20.0935155 104.624889,18.3949375 105.980662,16.4782022 L101.966934,16.4782022 Z" id="Fill-12" fill="#2386EE"></path>
                    <path d="M123.735361,16.2894759 L124.363549,15.7387549 C124.811462,16.1566964 125.518927,16.8532145 126.48515,17.8286156 C127.245572,18.6187072 127.827304,19.2216518 128.22765,19.6395933 C129.642897,18.4084347 130.968402,17.1189267 132.205593,15.7701503 C132.399503,15.5588057 132.729136,15.5309327 132.955708,15.7091973 L133.614338,16.2263788 C132.183871,17.7129886 130.666675,19.1519694 129.063068,20.5453119 C130.567738,22.1357562 131.704248,23.3512937 132.472597,24.1928432 C132.670947,24.4101605 132.649542,24.740195 132.425823,24.9331617 L131.455795,25.7695042 C130.337043,24.3306766 129.143137,22.9135961 127.872967,21.5204067 C126.17391,22.9854226 124.350548,24.3502796 122.401136,25.6151308 C122.159976,25.7714951 121.836052,25.7137582 121.659265,25.4912339 C121.623908,25.4468209 121.585855,25.400417 121.545107,25.3517158 C121.357697,25.0729861 121.224988,24.8878299 121.147297,24.7941031 C123.195012,23.5872951 125.159011,22.1942589 127.03755,20.6149944 C125.992525,19.479094 124.880909,18.2860693 123.700638,17.0359203 C123.497373,16.8205939 123.51196,16.4853525 123.735361,16.2894759 M121.587123,13.44 L136.08,13.44 L135.912092,14.3311695 C135.864843,14.5815669 135.639063,14.7636601 135.375548,14.7636601 L122.247815,14.7636601 L120.028228,26.5357048 L133.826641,26.5357048 L133.685053,27.2875094 C133.637804,27.5379068 133.412025,27.72 133.148509,27.72 L118.44,27.72 L121.050421,13.8723374 C121.09767,13.6219401 121.323608,13.44 121.587123,13.44" id="Fill-14" fill="#2386EE"></path>
                    <path d="M14.58,0 C18.1697362,0 21.08,2.91026053 21.08,6.49967835 C21.08,10.0902219 18.1697362,13 14.58,13 C10.9902638,13 8.08,10.0902219 8.08,6.49967835 C8.08,2.91026053 10.9902638,0 14.58,0" id="Fill-8" fill="#2386EE"></path>
                    <path d="M28.08,39 C28.08,40.6564097 26.7370458,42 25.0799158,42 C23.4229542,42 22.08,40.6564097 22.08,39 C22.08,37.343085 23.4229542,36 25.0799158,36 C26.7370458,36 28.08,37.343085 28.08,39" id="Fill-10" fill="#A06EFF"></path>
                </g>
            </g>
        </g>
    </g>
</svg>