<?xml version="1.0" encoding="UTF-8"?>
<svg width="24px" height="24px" viewBox="0 0 24 24" version="1.1" xmlns="http://www.w3.org/2000/svg" xmlns:xlink="http://www.w3.org/1999/xlink">
    <!-- Generator: Sketch 58 (84663) - https://sketch.com -->
    <title>消息</title>
    <desc>Created with Sketch.</desc>
    <g id="页面-1" stroke="none" stroke-width="1" fill="none" fill-rule="evenodd">
        <g id="标签配置" transform="translate(-1369.000000, -164.000000)" fill="#9AA5BB">
            <g id="编组-8" transform="translate(1202.000000, 92.000000)">
                <g id="icon/基础图标/退出-copy-22备份-3" transform="translate(167.000000, 72.000000)">
                    <g id="编组">
                        <path d="M20.5,3.75 C21.6045695,3.75 22.5,4.6454305 22.5,5.75 L22.5,16.75 C22.5,17.8545695 21.6045695,18.75 20.5,18.75 L15.052749,18.75 L12,21.75 L9,18.75 L3.5,18.75 C2.3954305,18.75 1.5,17.8545695 1.5,16.75 L1.5,5.75 C1.5,4.6454305 2.3954305,3.75 3.5,3.75 L20.5,3.75 Z M21,5.25 L3,5.25 L3,17.25 L9.62132034,17.25 L12.0092032,19.6378829 L14.4390723,17.25 L21,17.25 L21,5.25 Z M7.5,10.125 C8.12132034,10.125 8.625,10.6286797 8.625,11.25 C8.625,11.8713203 8.12132034,12.375 7.5,12.375 C6.87867966,12.375 6.375,11.8713203 6.375,11.25 C6.375,10.6286797 6.87867966,10.125 7.5,10.125 Z M12,10.125 C12.6213203,10.125 13.125,10.6286797 13.125,11.25 C13.125,11.8713203 12.6213203,12.375 12,12.375 C11.3786797,12.375 10.875,11.8713203 10.875,11.25 C10.875,10.6286797 11.3786797,10.125 12,10.125 Z M16.5,10.125 C17.1213203,10.125 17.625,10.6286797 17.625,11.25 C17.625,11.8713203 17.1213203,12.375 16.5,12.375 C15.8786797,12.375 15.375,11.8713203 15.375,11.25 C15.375,10.6286797 15.8786797,10.125 16.5,10.125 Z" id="合并形状"></path>
                    </g>
                </g>
            </g>
        </g>
    </g>
</svg>