<?xml version="1.0" encoding="UTF-8"?>
<svg width="24px" height="24px" viewBox="0 0 24 24" version="1.1" xmlns="http://www.w3.org/2000/svg" xmlns:xlink="http://www.w3.org/1999/xlink">
    <!-- Generator: Sketch 58 (84663) - https://sketch.com -->
    <title>提问题</title>
    <desc>Created with Sketch.</desc>
    <g id="页面-1" stroke="none" stroke-width="1" fill="none" fill-rule="evenodd">
        <g id="标签配置" transform="translate(-1259.000000, -164.000000)" fill="#9AA5BB">
            <g id="编组-8" transform="translate(1202.000000, 92.000000)">
                <g id="icon/基础图标/退出-copy-22备份-2" transform="translate(57.000000, 72.000000)">
                    <g id="编组">
                        <path d="M12,1.5 C17.7989899,1.5 22.5,6.20101013 22.5,12 C22.5,17.7989899 17.7989899,22.5 12,22.5 C10.0326486,22.5 8.19167004,21.9589339 6.61775208,21.0174895 L2.98399841,21.0174895 L2.98399841,17.3847346 C2.04163623,15.8102692 1.5,13.9683876 1.5,12 C1.5,6.20101013 6.20101013,1.5 12,1.5 Z M12,3 C7.02943725,3 3,7.02943725 3,12 C3,13.6499471 3.44325515,15.2312959 4.2710727,16.6143842 L4.48458282,16.9711094 L4.48344005,19.51838 L6.60472941,19.517546 L7.02610912,19.5138876 L7.38774714,19.7302026 C8.77034186,20.5572063 10.3509092,21 12,21 C16.9705627,21 21,16.9705627 21,12 C21,7.02943725 16.9705627,3 12,3 Z M12,16.3521733 C12.6213203,16.3521733 13.125,16.8558529 13.125,17.4771733 C13.125,18.0984936 12.6213203,18.6021733 12,18.6021733 C11.3786797,18.6021733 10.875,18.0984936 10.875,17.4771733 C10.875,16.8558529 11.3786797,16.3521733 12,16.3521733 Z M12,6 C14.0710678,6 15.75,7.67893219 15.75,9.75 C15.75,11.5642184 14.4616802,13.0775337 12.75,13.4249864 L12.75,15 L11.25,15 L11.25,13.8108073 C11.2500032,12.9145258 11.8462873,12.1276856 12.7091776,11.8853207 C12.7173456,11.8830265 12.7248367,11.8807085 12.7316507,11.8783666 C13.6151167,11.5747297 14.25,10.7365073 14.25,9.75 C14.25,8.50735931 13.2426407,7.5 12,7.5 C10.7573593,7.5 9.75,8.50735931 9.75,9.75 L8.25,9.75 C8.25,7.67893219 9.92893219,6 12,6 Z" id="形状结合"></path>
                    </g>
                </g>
            </g>
        </g>
    </g>
</svg>