<?xml version="1.0" encoding="UTF-8"?>
<svg width="16px" height="16px" viewBox="0 0 16 16" version="1.1" xmlns="http://www.w3.org/2000/svg" xmlns:xlink="http://www.w3.org/1999/xlink">
    <!-- Generator: Sketch 58 (84663) - https://sketch.com -->
    <title>消息1</title>
    <desc>Created with Sketch.</desc>
    <g id="首页" stroke="none" stroke-width="1" fill="none" fill-rule="evenodd">
        <g id="阅读全文" transform="translate(-460.000000, -264.000000)" fill="#9AA5BB">
            <g id="编组备份-4" transform="translate(360.000000, 145.000000)">
                <g id="icon/基础图标/详情复制-8备份" transform="translate(100.000000, 119.000000)">
                    <g id="编组">
                        <path d="M13,2.5 C14.1045695,2.5 15,3.3954305 15,4.5 L15,10.5 C15,11.6045695 14.1045695,12.5 13,12.5 L10.035166,12.5 L8,14.5 L6,12.5 L3,12.5 C1.8954305,12.5 1,11.6045695 1,10.5 L1,4.5 C1,3.3954305 1.8954305,2.5 3,2.5 L13,2.5 Z M5,6.75 C4.58578644,6.75 4.25,7.08578644 4.25,7.5 C4.25,7.91421356 4.58578644,8.25 5,8.25 C5.41421356,8.25 5.75,7.91421356 5.75,7.5 C5.75,7.08578644 5.41421356,6.75 5,6.75 Z M8,6.75 C7.58578644,6.75 7.25,7.08578644 7.25,7.5 C7.25,7.91421356 7.58578644,8.25 8,8.25 C8.41421356,8.25 8.75,7.91421356 8.75,7.5 C8.75,7.08578644 8.41421356,6.75 8,6.75 Z M11,6.75 C10.5857864,6.75 10.25,7.08578644 10.25,7.5 C10.25,7.91421356 10.5857864,8.25 11,8.25 C11.4142136,8.25 11.75,7.91421356 11.75,7.5 C11.75,7.08578644 11.4142136,6.75 11,6.75 Z" id="合并形状"></path>
                    </g>
                </g>
            </g>
        </g>
    </g>
</svg>