<?xml version="1.0" encoding="UTF-8"?>
<svg width="20px" height="20px" viewBox="0 0 20 20" version="1.1" xmlns="http://www.w3.org/2000/svg" xmlns:xlink="http://www.w3.org/1999/xlink">
    <!-- Generator: Sketch 59.1 (86144) - https://sketch.com -->
    <title>酷群-回播</title>
    <desc>Created with Sketch.</desc>
    <g id="页面-1" stroke="none" stroke-width="1" fill="none" fill-rule="evenodd">
        <g id="课程V2.0_首页（未登录）" transform="translate(-1297.000000, -757.000000)" fill="#2386EE">
            <g id="酷群-回播-2" transform="translate(1297.000000, 757.000000)">
                <g id="酷群-回播" transform="translate(1.000000, 0.000000)">
                    <g id="编组">
                        <path d="M10.3,8.56666667 L12.05,10.9 C12.3813708,11.3418278 12.2918278,11.9686292 11.85,12.3 C11.6769038,12.4298221 11.4663702,12.5 11.25,12.5 L7.75,12.5 C7.19771525,12.5 6.75,12.0522847 6.75,11.5 C6.75,11.2836298 6.82017787,11.0730962 6.95,10.9 L8.7,8.56666667 C9.03137085,8.12483887 9.6581722,8.03529582 10.1,8.36666667 C10.1758057,8.42352092 10.2431458,8.490861 10.3,8.56666667 Z" id="三角形" transform="translate(9.500000, 10.000000) rotate(-270.000000) translate(-9.500000, -10.000000) "></path>
                        <path d="M9,1 C13.9705627,1 18,5.02943725 18,10 C18,14.9705627 13.9705627,19 9,19 C4.02943725,19 0,14.9705627 0,10 C0,8.74495616 0.256892288,7.54991273 0.720962587,6.46458399 L1.49101214,7.23415556 C1.17341964,8.09610152 1,9.02779859 1,10 C1,14.418278 4.581722,18 9,18 C13.418278,18 17,14.418278 17,10 C17,5.581722 13.418278,2 9,2 C7.38643903,2 5.88445121,2.47770145 4.62774709,3.29939381 L3.90683523,2.57875725 C5.35513751,1.5828913 7.10949797,1 9,1 Z" id="形状结合" fill-rule="nonzero"></path>
                        <path d="M6.44658141,3.63636216 L8.02632055,3.63636216 C8.41853116,3.63636216 8.73684853,3.9413624 8.73684853,4.31818108 C8.73684853,4.69454433 8.41853292,5 8.02632055,5 L5.80379258,5 L4.32542308,5 C4.33537047,4.96545455 4.34863362,4.9322727 4.35905464,4.89772725 C4.27426505,4.85045446 4.20415972,4.78818173 4.14636963,4.71227316 C4.12410638,4.68454588 4.10326433,4.6568186 4.08573804,4.62636412 C4.0710538,4.59863684 4.05826427,4.57227317 4.04736952,4.54318229 C4.0194222,4.47272778 4,4.3986369 4,4.31818311 L4,0.681363485 C4,0.305000238 4.31784374,0 4.71052896,0 C5.10273957,0 5.42105693,0.305000238 5.42105693,0.681363485 L5.42105693,2.63954068 L6.44658141,3.63636216 Z" id="路径"></path>
                    </g>
                </g>
            </g>
        </g>
    </g>
</svg>