<?xml version="1.0" encoding="UTF-8"?>
<svg width="16px" height="16px" viewBox="0 0 16 16" version="1.1" xmlns="http://www.w3.org/2000/svg" xmlns:xlink="http://www.w3.org/1999/xlink">
    <!-- Generator: Sketch 58 (84663) - https://sketch.com -->
    <title>眼睛shiti</title>
    <desc>Created with Sketch.</desc>
    <g id="首页" stroke="none" stroke-width="1" fill="none" fill-rule="evenodd">
        <g id="知识" transform="translate(-781.000000, -708.000000)" fill="#9AA5BB">
            <g id="编组备份-6" transform="translate(621.000000, 589.000000)">
                <g id="icon/基础图标/详情复制-8备份" transform="translate(160.000000, 119.000000)">
                    <g id="编组">
                        <path d="M8,3 C11.8659932,3 15,6.5 15,8 C15,9.5 11.8659932,13 8,13 C4.13400675,13 1,9.5 1,8 C1,6.5 4.13400675,3 8,3 Z M8,5.5 C6.61928813,5.5 5.5,6.61928813 5.5,8 C5.5,9.38071187 6.61928813,10.5 8,10.5 C9.38071187,10.5 10.5,9.38071187 10.5,8 C10.5,6.61928813 9.38071187,5.5 8,5.5 Z" id="形状结合"></path>
                    </g>
                </g>
            </g>
        </g>
    </g>
</svg>