<?xml version="1.0" encoding="UTF-8"?>
<svg width="16px" height="16px" viewBox="0 0 16 16" version="1.1" xmlns="http://www.w3.org/2000/svg" xmlns:xlink="http://www.w3.org/1999/xlink">
    <!-- Generator: Sketch 58 (84663) - https://sketch.com -->
    <title>图片</title>
    <desc>Created with Sketch.</desc>
    <g id="按钮规范" stroke="none" stroke-width="1" fill="none" fill-rule="evenodd">
        <g id="操作按钮" transform="translate(-264.000000, -559.000000)" fill="#FFFFFF">
            <g id="编组-2" transform="translate(248.000000, 551.000000)">
                <g id="icon/基础图标/退出-copy-16" transform="translate(16.000000, 8.000000)">
                    <g id="编组">
                        <path d="M13,2 C13.5522847,2 14,2.44771525 14,3 L14,3 L14,13 C14,13.5522847 13.5522847,14 13,14 L13,14 L3,14 C2.44771525,14 2,13.5522847 2,13 L2,13 L2,3 C2,2.44771525 2.44771525,2 3,2 L3,2 Z M5.5,7.5 L3,10 L3,13 L13,13 L13,12 L10.5,9.5 L9.705,10.295 C9.31496255,10.6827236 8.68503745,10.6827236 8.295,10.295 L8.295,10.295 L5.5,7.5 Z M13,3 L3,3 L3,8.585 L4.795,6.79 C5.18503745,6.40227641 5.81496255,6.40227641 6.205,6.79 L6.205,6.79 L9,9.585 L9.795,8.79 C10.1850375,8.40227641 10.8149625,8.40227641 11.205,8.79 L11.205,8.79 L13,10.585 L13,3 Z M9.5,4 C10.3284271,4 11,4.67157288 11,5.5 C11,6.32842712 10.3284271,7 9.5,7 C8.67157288,7 8,6.32842712 8,5.5 C8,4.67157288 8.67157288,4 9.5,4 Z M9.5,5 C9.22385763,5 9,5.22385763 9,5.5 C9,5.77614237 9.22385763,6 9.5,6 C9.77614237,6 10,5.77614237 10,5.5 C10,5.22385763 9.77614237,5 9.5,5 Z" id="合并形状"></path>
                    </g>
                </g>
            </g>
        </g>
    </g>
</svg>