<?xml version="1.0" encoding="UTF-8"?>
<svg width="16px" height="16px" viewBox="0 0 16 16" version="1.1" xmlns="http://www.w3.org/2000/svg" xmlns:xlink="http://www.w3.org/1999/xlink">
    <!-- Generator: Sketch 58 (84663) - https://sketch.com -->
    <title>更多</title>
    <desc>Created with Sketch.</desc>
    <g id="首页" stroke="none" stroke-width="1" fill="none" fill-rule="evenodd">
        <g id="阅读全文" transform="translate(-517.000000, -264.000000)" fill="#9AA5BB">
            <g id="编组备份-4" transform="translate(360.000000, 145.000000)">
                <g id="icon/基础图标/详情复制-8备份-5" transform="translate(157.000000, 119.000000)">
                    <g id="编组">
                        <path d="M3.5,7 C4.05228475,7 4.5,7.44771525 4.5,8 C4.5,8.55228475 4.05228475,9 3.5,9 C2.94771525,9 2.5,8.55228475 2.5,8 C2.5,7.44771525 2.94771525,7 3.5,7 Z M8,7 C8.55228475,7 9,7.44771525 9,8 C9,8.55228475 8.55228475,9 8,9 C7.44771525,9 7,8.55228475 7,8 C7,7.44771525 7.44771525,7 8,7 Z M12.5,7 C13.0522847,7 13.5,7.44771525 13.5,8 C13.5,8.55228475 13.0522847,9 12.5,9 C11.9477153,9 11.5,8.55228475 11.5,8 C11.5,7.44771525 11.9477153,7 12.5,7 Z" id="形状结合"></path>
                    </g>
                </g>
            </g>
        </g>
    </g>
</svg>