<?xml version="1.0" encoding="UTF-8"?>
<svg width="16px" height="16px" viewBox="0 0 16 16" version="1.1" xmlns="http://www.w3.org/2000/svg" xmlns:xlink="http://www.w3.org/1999/xlink">
    <!-- Generator: Sketch 58 (84663) - https://sketch.com -->
    <title>收录到圈子</title>
    <desc>Created with Sketch.</desc>
    <g id="首页" stroke="none" stroke-width="1" fill="none" fill-rule="evenodd">
        <g id="首页-推荐" transform="translate(-455.000000, -473.000000)" fill="#9AA5BB">
            <g id="编组-13" transform="translate(443.000000, 420.000000)">
                <g id="编组-14备份-3" transform="translate(0.000000, 42.000000)">
                    <g id="icon/基础图标/退出-copy-23复制-6" transform="translate(12.000000, 11.000000)">
                        <g id="编组">
                            <path d="M5.585,1.99999937 C5.85152229,1.99978881 6.10710181,2.1059803 6.295,2.295 L6.295,2.295 L8,3.49999937 L14,3.49999937 C14.5522847,3.49999937 15,3.94771525 15,4.49999937 L15,4.49999937 L15,12.9999994 C15,13.5522847 14.5522847,13.9999994 14,13.9999994 L14,13.9999994 L2,13.9999994 C1.44771525,13.9999994 1,13.5522847 1,12.9999994 L1,12.9999994 L1,2.99999937 C1,2.44771525 1.44771525,1.99999937 2,1.99999937 L2,1.99999937 Z M7.83806821,5.5 L4.5,7.95972625 L7.83806821,10.4304207 L7.83806821,8.9815534 C9.18928998,8.9815534 10.4404212,9.05275081 11.5,11 C11.5,9.76294498 11.3015447,7.00404531 7.83806821,6.96488673 L7.83806821,6.96488673 L7.83806821,5.5 Z" id="形状结合"></path>
                        </g>
                    </g>
                </g>
            </g>
        </g>
    </g>
</svg>