<?xml version="1.0" encoding="UTF-8"?>
<svg width="16px" height="16px" viewBox="0 0 16 16" version="1.1" xmlns="http://www.w3.org/2000/svg" xmlns:xlink="http://www.w3.org/1999/xlink">
    <!-- Generator: Sketch 58 (84663) - https://sketch.com -->
    <title>采纳</title>
    <desc>Created with Sketch.</desc>
    <g id="首页" stroke="none" stroke-width="1" fill="none" fill-rule="evenodd">
        <g id="图标状态" transform="translate(-518.000000, -29.000000)" fill="#9AA5BB">
            <g id="icon/基础图标/详情复制-8备份-4" transform="translate(518.000000, 29.000000)">
                <g id="编组">
                    <path d="M8,1 L14.0621778,4.5 L14.0621778,11.5 L8,15 L1.93782217,11.5 L1.93782217,4.5 L8,1 Z M8.09571901,4.51812955 C7.97917687,4.47242276 7.84838839,4.51609332 7.78363489,4.61592955 L7.76260452,4.65593604 L6.93803989,6.64510142 L4.73829956,6.79320195 C4.66890416,6.79787409 4.60445237,6.82981688 4.55977679,6.88167917 C4.47907281,6.97536554 4.48135648,7.10985001 4.55896289,7.20060312 L4.59158108,7.23242053 L6.28171245,8.60989288 L5.74676279,10.6905894 C5.72988668,10.7562293 5.74120252,10.8257231 5.77810612,10.8830778 C5.84477045,10.986686 5.97697032,11.0261314 6.08968722,10.9823837 L6.13087674,10.9620414 L8.00000216,9.82420079 L9.86912326,10.9620414 C9.92808865,10.997937 9.99953401,11.0089437 10.0670173,10.9925286 C10.1889221,10.9628756 10.2683424,10.8527697 10.2603989,10.734979 L10.2532372,10.6905894 L9.71828755,8.60989288 L11.4084189,7.23242053 C11.4617376,7.1889653 11.4945775,7.12627404 11.4993808,7.05877423 C11.5080578,6.93683951 11.4249424,6.82934493 11.3073161,6.800294 L11.2617004,6.79320195 L9.06196011,6.64510142 L8.23739548,4.65593604 C8.21138287,4.59318367 8.16023364,4.54343161 8.09571901,4.51812955 Z" id="形状"></path>
                </g>
            </g>
        </g>
    </g>
</svg>