<?xml version="1.0" encoding="UTF-8"?>
<svg width="16px" height="16px" viewBox="0 0 16 16" version="1.1" xmlns="http://www.w3.org/2000/svg" xmlns:xlink="http://www.w3.org/1999/xlink">
    <!-- Generator: Sketch 58 (84663) - https://sketch.com -->
    <title>垃圾桶0</title>
    <desc>Created with Sketch.</desc>
    <g id="首页" stroke="none" stroke-width="1" fill="none" fill-rule="evenodd">
        <g id="首页-推荐" transform="translate(-455.000000, -587.000000)" fill="#9AA5BB">
            <g id="编组-13" transform="translate(443.000000, 420.000000)">
                <g id="编组-14备份-2" transform="translate(0.000000, 156.000000)">
                    <g id="icon/基础图标/退出-copy-23复制-6" transform="translate(12.000000, 11.000000)">
                        <g id="编组">
                            <path d="M13.5,4 L13.5,14 C13.5,14.5522847 13.0522847,15 12.5,15 L3.5,15 C2.94771525,15 2.5,14.5522847 2.5,14 L2.5,4 L13.5,4 Z M7,6 L6,6 L6,12 L7,12 L7,6 Z M10,6 L9,6 L9,12 L10,12 L10,6 Z M9,1 L10,2 L14.5,2 L14.5,3 L1.5,3 L1.5,2 L6,2 L7,1 L9,1 Z" id="形状结合"></path>
                        </g>
                    </g>
                </g>
            </g>
        </g>
    </g>
</svg>