<?xml version="1.0" encoding="UTF-8"?>
<svg width="18px" height="18px" viewBox="0 0 18 18" version="1.1" xmlns="http://www.w3.org/2000/svg" xmlns:xlink="http://www.w3.org/1999/xlink">
    <!-- Generator: Sketch 59.1 (86144) - https://sketch.com -->
    <title>im_erweima copy</title>
    <desc>Created with Sketch.</desc>
    <g id="页面-1" stroke="none" stroke-width="1" fill="none" fill-rule="evenodd">
        <g id="课程V2.0_系列直播_回顾" transform="translate(-1516.000000, -649.000000)" stroke="#979797">
            <g id="Group-5-Copy" transform="translate(1516.000000, 649.000000)">
                <g id="Group">
                    <rect id="Rectangle" stroke-width="2" x="1" y="1" width="5" height="5"></rect>
                    <rect id="Rectangle" stroke-width="2" x="12" y="1" width="5" height="5"></rect>
                    <rect id="Rectangle" stroke-width="2" x="1" y="12" width="5" height="5"></rect>
                    <rect id="Rectangle-3" x="8.5" y="0.5" width="1" height="2"></rect>
                    <rect id="Rectangle-3" x="8.5" y="14.5" width="1" height="3"></rect>
                    <rect id="Rectangle-3" transform="translate(7.500000, 9.000000) rotate(-90.000000) translate(-7.500000, -9.000000) " x="7" y="8" width="1" height="2"></rect>
                    <rect id="Rectangle-3" transform="translate(2.000000, 9.000000) rotate(-90.000000) translate(-2.000000, -9.000000) " x="1.5" y="7.5" width="1" height="3"></rect>
                    <rect id="Rectangle-3" transform="translate(16.500000, 9.000000) rotate(-90.000000) translate(-16.500000, -9.000000) " x="16" y="8" width="1" height="2"></rect>
                    <rect id="Rectangle-3" x="8.5" y="5.5" width="1" height="6"></rect>
                    <rect id="Rectangle" stroke-width="2" x="12" y="12" width="5" height="5"></rect>
                </g>
            </g>
        </g>
    </g>
</svg>