<?xml version="1.0" encoding="UTF-8"?>
<svg width="20px" height="20px" viewBox="0 0 20 20" version="1.1" xmlns="http://www.w3.org/2000/svg" xmlns:xlink="http://www.w3.org/1999/xlink">
    <!-- Generator: Sketch 53.2 (72643) - https://sketchapp.com -->
    <title>目录</title>
    <desc>Created with Sketch.</desc>
    <g id="Page-1" stroke="none" stroke-width="1" fill="none" fill-rule="evenodd">
        <g id="金蝶云社区_知识库" transform="translate(-377.000000, -106.000000)" fill="#7A828B" fill-rule="nonzero">
            <g id="目录-2" transform="translate(377.000000, 106.000000)">
                <g id="目录">
                    <path d="M19.9998148,2.19935834 C20.0153013,1.00011063 19.0573544,0.0177010731 17.8582615,0 L2.15058707,0 C0.949281825,0.0132758048 -0.0130897772,0.997897998 0.000184313814,2.1971457 L0.000184313814,17.8006417 C-0.0153021258,19.002102 0.947069476,19.9867242 2.14837472,20 L17.8582615,20 C19.0573544,19.9822989 20.0153013,18.9976767 19.9998148,17.8006417 L19.9998148,2.19935834 Z M15,7 L5,7 C4.44771525,7 4,6.55228475 4,6 L4,6 C4,5.44771525 4.44771525,5 5,5 L15,5 C15.5522847,5 16,5.44771525 16,6 L16,6 C16,6.55228475 15.5522847,7 15,7 Z M15,11 L5,11 C4.44771525,11 4,10.5522847 4,10 L4,10 C4,9.44771525 4.44771525,9 5,9 L15,9 C15.5522847,9 16,9.44771525 16,10 L16,10 C16,10.5522847 15.5522847,11 15,11 Z M15,15 L5,15 C4.44771525,15 4,14.5522847 4,14 L4,14 C4,13.4477153 4.44771525,13 5,13 L15,13 C15.5522847,13 16,13.4477153 16,14 L16,14 C16,14.5522847 15.5522847,15 15,15 Z" id="Shape"></path>
                </g>
            </g>
        </g>
    </g>
</svg>