<?xml version="1.0" encoding="UTF-8"?>
<svg width="21px" height="22px" viewBox="0 0 21 22" version="1.1" xmlns="http://www.w3.org/2000/svg" xmlns:xlink="http://www.w3.org/1999/xlink">
    <!-- Generator: Sketch 55.2 (78181) - https://sketchapp.com -->
    <title>ic_分类</title>
    <desc>Created with Sketch.</desc>
    <g id="页面1" stroke="none" stroke-width="1" fill="none" fill-rule="evenodd">
        <g id="回答_产品提问-知识库问答" transform="translate(-1218.000000, -444.000000)" fill="#8590A6">
            <g id="编组-3" transform="translate(1202.000000, 420.000000)">
                <g id="编组-5" transform="translate(16.000000, 24.000000)">
                    <g id="编组-4" transform="translate(2.000000, 2.000000)">
                        <path d="M8.5,7 C8.77614237,7 9,7.22385763 9,7.5 L9,8.5 C9,8.77614237 8.77614237,9 8.5,9 C8.22385763,9 8,8.77614237 8,8.5 L8,7.5 C8,7.22385763 8.22385763,7 8.5,7 Z" id="矩形"></path>
                        <path d="M3,11 L3,9.8 C3,8.80588745 3.67157288,8 4.5,8 L12.5,8 C13.3284271,8 14,8.80588745 14,9.8 L14,11 M3.64705882,11 L13.3529412,11 L13.3529412,10 C13.3529412,9.30964406 12.918394,8.75 12.3823529,8.75 L4.61764706,8.75 C4.08160598,8.75 3.64705882,9.30964406 3.64705882,10 L3.64705882,11 Z" id="路径" fill-rule="nonzero"></path>
                        <rect id="矩形" x="0" y="11" width="7" height="7" rx="2"></rect>
                        <rect id="矩形" x="5" y="0" width="7" height="7" rx="2"></rect>
                        <rect id="矩形" x="10" y="11" width="7" height="7" rx="2"></rect>
                    </g>
                </g>
            </g>
        </g>
    </g>
</svg>