<?xml version="1.0" encoding="UTF-8"?>
<svg width="16px" height="16px" viewBox="0 0 16 16" version="1.1" xmlns="http://www.w3.org/2000/svg" xmlns:xlink="http://www.w3.org/1999/xlink">
    <!-- Generator: Sketch 58 (84663) - https://sketch.com -->
    <title>星星1</title>
    <desc>Created with Sketch.</desc>
    <g id="首页" stroke="none" stroke-width="1" fill="none" fill-rule="evenodd">
        <g id="阅读全文-已收藏" transform="translate(-610.000000, -1046.000000)" fill="#2386EE">
            <g id="编组-2" transform="translate(360.000000, 1027.000000)">
                <g id="icon/基础图标/详情复制-8备份-3" transform="translate(250.000000, 19.000000)">
                    <g id="编组">
                        <path d="M8,12.0292039 L4.34888787,14.3142593 C4.11480928,14.4607578 3.80629055,14.3897602 3.65979202,14.1556816 C3.58770518,14.0404996 3.56560103,13.9009395 3.59856651,13.7691189 L4.64352766,9.59058397 L1.34205512,6.82429095 C1.13039247,6.64693951 1.10257774,6.33158128 1.27992918,6.11991863 C1.36719766,6.01576679 1.49309665,5.95161806 1.62865238,5.94223529 L5.92558601,5.64481409 L7.53627589,1.65009556 C7.63953978,1.39398781 7.93086806,1.27008338 8.18697581,1.37334726 C8.31299753,1.42415983 8.41291154,1.52407384 8.46372411,1.65009556 L10.074414,5.64481409 L14.3713476,5.94223529 C14.6468309,5.96130343 14.8546964,6.20008451 14.8356282,6.47556775 C14.8262455,6.61112348 14.7620967,6.73702247 14.6579449,6.82429095 L11.3564723,9.59058397 L12.4014335,13.7691189 C12.4684276,14.0370114 12.3055673,14.3084907 12.0376748,14.3754848 C11.9058542,14.4084503 11.7662941,14.3863461 11.6511121,14.3142593 L8,12.0292039 Z" id="星形"></path>
                    </g>
                </g>
            </g>
        </g>
    </g>
</svg>