<?xml version="1.0" encoding="UTF-8"?>
<svg width="16px" height="16px" viewBox="0 0 16 16" version="1.1" xmlns="http://www.w3.org/2000/svg" xmlns:xlink="http://www.w3.org/1999/xlink">
    <!-- Generator: Sketch 58 (84663) - https://sketch.com -->
    <title>没用</title>
    <desc>Created with Sketch.</desc>
    <g id="首页" stroke="none" stroke-width="1" fill="none" fill-rule="evenodd">
        <g id="图标状态" transform="translate(-106.000000, -63.000000)" fill="#2386EE">
            <g id="icon/基础图标/详情复制-8备份-7" transform="translate(106.000000, 63.000000)">
                <g id="编组">
                    <path d="M8,1 C9.85651543,1 11.6369928,1.73749788 12.9497475,3.05025253 C14.2625021,4.36300718 15,6.14348457 15,8 C15,11.8659932 11.8659932,15 8,15 C4.13400675,15 1,11.8659932 1,8 C1,4.13400675 4.13400675,1 8,1 Z M8,9.555 C6.59611927,9.55737368 5.29624275,10.2955517 4.575,11.5 L4.575,11.5 L5.43,12 C5.97273359,11.0987236 6.94792639,10.5476111 8,10.5476111 C9.05207361,10.5476111 10.0272664,11.0987236 10.57,12 L10.57,12 L11.425,11.5 C10.7037573,10.2955517 9.40388073,9.55737368 8,9.555 Z M5.5,5.49999186 C4.94771707,5.49999186 4.5,5.94770893 4.5,6.49999593 C4.5,7.05228293 4.94771707,7.5 5.5,7.5 C6.05229107,7.5 6.5,7.05228293 6.5,6.49999593 C6.50216106,6.2341242 6.39749527,5.97851646 6.20948941,5.79051059 C6.02148354,5.60250473 5.7658758,5.49783894 5.5,5.49999186 Z M10.5,5.49999186 C9.94771707,5.49999186 9.5,5.94770893 9.5,6.49999593 C9.5,7.05228293 9.94771707,7.5 10.5,7.5 C11.0522911,7.5 11.5,7.05228293 11.5,6.49999593 C11.5021611,6.2341242 11.3974953,5.97851646 11.2094894,5.79051059 C11.0214835,5.60250473 10.7658758,5.49783894 10.5,5.49999186 Z" id="合并形状"></path>
                </g>
            </g>
        </g>
    </g>
</svg>