<?xml version="1.0" encoding="UTF-8"?>
<svg width="16px" height="16px" viewBox="0 0 16 16" version="1.1" xmlns="http://www.w3.org/2000/svg" xmlns:xlink="http://www.w3.org/1999/xlink">
    <!-- Generator: Sketch 58 (84663) - https://sketch.com -->
    <title>推荐</title>
    <desc>Created with Sketch.</desc>
    <g id="首页" stroke="none" stroke-width="1" fill="none" fill-rule="evenodd">
        <g id="首页-推荐" transform="translate(-455.000000, -435.000000)" fill="#9AA5BB">
            <g id="编组-13" transform="translate(443.000000, 420.000000)">
                <g id="编组-14" transform="translate(0.000000, 4.000000)">
                    <g id="icon/基础图标/退出-copy-23复制-6" transform="translate(12.000000, 11.000000)">
                        <g id="编组">
                            <path d="M11.5,1 C12.6045695,1 13.5,1.8954305 13.5,3 L13.5,13.4469958 C13.5,13.9992806 13.0522847,14.4469958 12.5,14.4469958 C12.3572491,14.4469958 12.2161527,14.416433 12.0861971,14.3573623 L8,12.5 L3.91380294,14.3573623 C3.41102142,14.5858994 2.81817058,14.3635803 2.58963352,13.8607988 C2.53056279,13.7308432 2.5,13.5897467 2.5,13.4469958 L2.5,3 C2.5,1.8954305 3.3954305,1 4.5,1 L11.5,1 Z M8.09571685,3.51812955 C7.96460694,3.46670942 7.81546651,3.52840748 7.76260236,3.65593604 L7.76260236,3.65593604 L6.93803773,5.64510142 L4.7382974,5.79320195 C4.668902,5.79787409 4.60445021,5.82981688 4.55977463,5.88167917 C4.46898265,5.98707633 4.48322191,6.14410859 4.59157892,6.23242053 L4.59157892,6.23242053 L6.28171029,7.60989288 L5.74676062,9.69058943 C5.72988452,9.75622934 5.74120036,9.82572313 5.77810396,9.88307784 C5.85310133,9.99963701 6.01104212,10.0349902 6.13087458,9.96204144 L6.13087458,9.96204144 L8,8.82420079 L9.8691211,9.96204144 C9.92808649,9.997937 9.99953185,10.0089437 10.0670151,9.99252861 C10.204158,9.95916897 10.2875315,9.82398619 10.2532351,9.69058943 L10.2532351,9.69058943 L9.71828539,7.60989288 L11.4084168,6.23242053 C11.4617355,6.1889653 11.4945753,6.12627404 11.4993786,6.05877423 C11.5091403,5.92159767 11.4027271,5.80269691 11.2616983,5.79320195 L11.2616983,5.79320195 L9.06195795,5.64510142 L8.23739332,3.65593604 C8.21138071,3.59318367 8.16023147,3.54343161 8.09571685,3.51812955 Z" id="形状结合"></path>
                        </g>
                    </g>
                </g>
            </g>
        </g>
    </g>
</svg>