<?xml version="1.0" encoding="UTF-8"?>
<svg width="18px" height="18px" viewBox="0 0 18 18" version="1.1" xmlns="http://www.w3.org/2000/svg" xmlns:xlink="http://www.w3.org/1999/xlink">
    <!-- Generator: Sketch 53.2 (72643) - https://sketchapp.com -->
    <title>Combined Shape 3 Copy</title>
    <desc>Created with Sketch.</desc>
    <g id="Page-1" stroke="none" stroke-width="1" fill="none" fill-rule="evenodd">
        <g id="Combined-Shape-3-Copy" transform="translate(9.000000, 9.000000) rotate(-180.000000) translate(-9.000000, -9.000000) " fill="#8590A6" fill-rule="nonzero">
            <path d="M9,18 C4.02943725,18 0,13.9705627 0,9 C0,4.02943725 4.02943725,0 9,0 C13.9705627,0 18,4.02943725 18,9 C18,13.9705627 13.9705627,18 9,18 Z M9.65819413,13.3333333 L9.6581946,8.91900011 L10.8692667,10.1383334 C11.1280673,10.3986439 11.5475163,10.3984949 11.8061338,10.1380001 C12.0647512,9.87750531 12.0646032,9.45531052 11.8058026,9.1950001 L9.46394178,6.837809 C9.20514115,6.57760426 8.78577599,6.57783863 8.52726408,6.83833343 L6.1859243,9.19533343 C5.93802523,9.45368239 5.93802523,9.86326676 6.18592431,10.1216157 C6.44004619,10.38645 6.85934823,10.3937854 7.12246022,10.138 L8.3335323,8.919 L8.3335323,13.3333333 C8.3335323,13.7015229 8.6300682,14 8.99586321,14 C9.36165823,14 9.65819413,13.7015229 9.65819413,13.3333333 Z M11.3333334,4 L6.66666666,4 C6.29847708,4 6.00000002,4.22385781 6,4.5 C6,4.77614219 6.29847708,4.99999999 6.66666669,5 L11.3333333,5 C11.7015229,5 12,4.77614219 12,4.5 C12,4.22385781 11.7015229,3.99999999 11.3333334,4 Z" id="Combined-Shape"></path>
        </g>
    </g>
</svg>