<?xml version="1.0" encoding="UTF-8"?>
<svg width="24px" height="24px" viewBox="0 0 24 24" version="1.1" xmlns="http://www.w3.org/2000/svg" xmlns:xlink="http://www.w3.org/1999/xlink">
    <!-- Generator: Sketch 55 (78076) - https://sketchapp.com -->
    <title>icon_xiewenzhang copy 6</title>
    <desc>Created with Sketch.</desc>
    <g id="Page-1" stroke="none" stroke-width="1" fill="none" fill-rule="evenodd">
        <g id="资讯_查看资讯_对我有用/没用-点亮" transform="translate(-878.000000, -1792.000000)" fill="#8590A6">
            <g id="编组-2" transform="translate(878.000000, 1792.000000)">
                <g id="icon_评论">
                    <g id="形状结合-4" transform="translate(2.000000, 2.000000)">
                        <path d="M10,20 C4.4771525,20 0,15.5228475 0,10 C0,4.4771525 4.4771525,0 10,0 C15.5228475,0 20,4.4771525 20,10 C20,15.5228475 15.5228475,20 10,20 Z M6.5,9 C7.32842712,9 8,8.32842712 8,7.5 C8,6.67157288 7.32842712,6 6.5,6 C5.67157288,6 5,6.67157288 5,7.5 C5,8.32842712 5.67157288,9 6.5,9 Z M13.5,9 C14.3284271,9 15,8.32842712 15,7.5 C15,6.67157288 14.3284271,6 13.5,6 C12.6715729,6 12,6.67157288 12,7.5 C12,8.32842712 12.6715729,9 13.5,9 Z M10,12 C8.32557611,12 6.83718923,12.8906433 6,14.2969116 L7.20928141,15 C7.76740151,14.0625183 8.83722103,13.4062683 10.0000091,13.4062683 C11.1627971,13.4062683 12.2325258,14.0625183 12.7906459,15 L14,14.2969116 C13.1627563,12.8906433 11.6744239,12 10,12 Z" id="形状结合"></path>
                    </g>
                </g>
            </g>
        </g>
    </g>
</svg>