<?xml version="1.0" encoding="UTF-8"?>
<svg width="18px" height="18px" viewBox="0 0 18 18" version="1.1" xmlns="http://www.w3.org/2000/svg" xmlns:xlink="http://www.w3.org/1999/xlink">
    <!-- Generator: Sketch 56.3 (81716) - https://sketch.com -->
    <title>ppt</title>
    <desc>Created with Sketch.</desc>
    <g id="Page-1" stroke="none" stroke-width="1" fill="none" fill-rule="evenodd">
        <g id="金蝶云社区课程_金蝶云星空课程首页优化" transform="translate(-379.000000, -2056.000000)">
            <rect fill="#FFFFFF" x="0" y="0" width="1920" height="2622"></rect>
            <rect id="矩形备份-2" stroke="#EAEAEA" fill="#FFFFFF" x="360.5" y="1758.5" width="379" height="328" rx="2"></rect>
            <g id="Rectangle-14-Copy-15备份-2" transform="translate(379.000000, 1992.000000)">
                <g id="Group-7">
                    <g id="ppt-2" transform="translate(0.000000, 64.000000)">
                        <g id="ppt">
                            <rect id="矩形" fill="#FF5E44" x="0" y="0" width="18" height="18" rx="2"></rect>
                            <path d="M9.18987346,9.92610833 L7.06329114,9.92610833 L7.06329114,13 L6,13 L6,5 L9.30379745,5 C10.9746919,5.07881813 11.8734171,5.88012375 12,7.40394088 C11.9746835,9.0591216 11.037984,9.89983567 9.18987346,9.92610833 Z M9.03921567,6 L7,6 L7,9 L9.03921567,9 C10.3202678,9 10.973856,8.48148666 11,7.44444443 C10.9215682,6.53085963 10.2679799,6.04938296 9.03921567,6 Z" id="P" fill="#FFFFFF" fill-rule="nonzero"></path>
                        </g>
                    </g>
                </g>
            </g>
        </g>
    </g>
</svg>