<?xml version="1.0" encoding="UTF-8"?>
<svg width="18px" height="18px" viewBox="0 0 18 18" version="1.1" xmlns="http://www.w3.org/2000/svg" xmlns:xlink="http://www.w3.org/1999/xlink">
    <!-- Generator: Sketch 54.1 (76490) - https://sketchapp.com -->
    <title>Shape 2</title>
    <desc>Created with Sketch.</desc>
    <g id="Page-1" stroke="none" stroke-width="1" fill="none" fill-rule="evenodd">
        <g id="回答_产品提问-设为满意答案" transform="translate(-402.000000, -291.000000)" fill="#7F93BC">
            <g id="Shape-3" transform="translate(402.000000, 291.000000)">
                <g id="Shape-2" transform="translate(2.000000, 1.000000)">
                    <path d="M3.8740103,9.93067184 L9.20091404,4.47069109 C9.36847796,4.29961402 9.36847796,4.02345915 9.20091404,3.85151367 C9.03198038,3.6804366 8.75849049,3.6804366 8.59001341,3.85151367 L3.26721887,9.30802078 C3.2343453,9.3397178 3.22840979,9.34623089 3.22293086,9.35144135 L3.1512482,9.42351951 C3.1229404,9.45217709 3.09965495,9.48387411 3.08093527,9.51861057 C2.29881811,10.4925341 2.36091264,11.9102159 3.24621631,12.8085876 C4.17032907,13.7434326 5.64461765,13.7768665 6.6052566,12.8828368 C6.60890922,12.878929 12.9069532,6.43634058 12.9069532,6.43634058 C13.6109956,5.72380892 13.9999996,4.77463512 13.9999996,3.76554093 C14.0004562,2.75905197 13.616018,1.81291761 12.9156282,1.10299119 C11.4659948,-0.36766373 9.10548935,-0.36766373 7.65402964,1.10299119 L5.04558803,3.80663376 L2.53669496,6.35542159 L1.40255658,7.50736948 C-0.48219513,9.46650588 -0.463475455,12.6197081 1.43497357,14.5432397 C2.39150333,15.5136895 3.65485313,16 4.91957266,16 C6.14274364,16 7.36819751,15.5449524 8.31559572,14.6318176 C8.34344694,14.6083705 8.34846929,14.6031601 8.35577453,14.5962128 L8.40188886,14.5506212 C8.40371517,14.5480159 13.7333584,9.08629835 13.7333584,9.08629835 C13.7475123,9.07110115 13.757557,9.060246 13.7689714,9.04895666 C13.9406445,8.88309005 13.9488629,8.60736939 13.7867779,8.43021344 C13.6219535,8.25479431 13.3493767,8.2465444 13.1758773,8.41284521 C13.1576142,8.43021344 13.1393511,8.44801588 13.1206314,8.46929196 L7.79875005,13.9244965 C7.78048695,13.938391 7.76587647,13.9522856 7.75172257,13.9666144 C6.16511594,15.5267157 3.6087388,15.5084791 2.0458742,13.9231938 C0.481183285,12.336606 0.465659652,9.73788448 2.01071774,8.12828372 C2.12029632,8.01712704 8.19416076,1.79424676 8.26493027,1.7217344 C9.37943582,0.591931007 11.1920483,0.591931007 12.3051841,1.7217344 C12.8421192,2.26666263 13.1384379,2.99222047 13.1384379,3.76510672 C13.1370682,4.54016401 12.8384666,5.26832708 12.2974223,5.81542634 L6.0139888,12.2449886 C5.39578294,12.8142323 4.45158077,12.7899168 3.85803009,12.188976 C3.26493599,11.5889037 3.24575973,10.6271379 3.81237235,9.99927635 C3.82333021,9.98885542 3.83291833,9.97582924 3.84068015,9.96323728 C3.87035768,9.93457969 3.87218399,9.93327708 3.8740103,9.93067184 Z" id="Shape"></path>
                </g>
            </g>
        </g>
    </g>
</svg>