<?xml version="1.0" encoding="UTF-8"?>
<svg width="18px" height="18px" viewBox="0 0 18 18" version="1.1" xmlns="http://www.w3.org/2000/svg" xmlns:xlink="http://www.w3.org/1999/xlink">
    <!-- Generator: Sketch 56.3 (81716) - https://sketch.com -->
    <title>PDF</title>
    <desc>Created with Sketch.</desc>
    <g id="Page-1" stroke="none" stroke-width="1" fill="none" fill-rule="evenodd">
        <g id="金蝶云社区课程_金蝶云星空课程首页优化" transform="translate(-789.000000, -2056.000000)">
            <g id="PDF-2" transform="translate(789.000000, 2056.000000)">
                <g id="PDF">
                    <rect id="矩形" fill="#FF5E44" x="0" y="0" width="18" height="18" rx="2"></rect>
                    <g id="pdf" transform="translate(3.909091, 3.829091)" fill="#FFFFFF" fill-rule="nonzero">
                        <path d="M9.04845524,10 C8.05278694,10 7.16774845,8.26874794 6.69362069,7.14664012 C5.90340775,6.81000778 5.03417352,6.50543566 4.1965478,6.2970442 C3.45374764,6.79397766 2.2052112,7.5313628 1.24115142,7.5313628 C0.640589582,7.5313628 0.213874595,7.22679068 0.0558320077,6.697797 C-0.0706020625,6.26498398 0.0400277489,5.96041186 0.166461819,5.80011074 C0.419329959,5.44744829 0.940870499,5.27111705 1.73108344,5.27111705 C2.36325378,5.27111705 3.16927098,5.38332783 4.07011373,5.6077494 C4.6548713,5.1909665 5.23962889,4.71006315 5.76116942,4.19709958 C5.52410555,3.07499176 5.2712374,1.26358914 5.91921201,0.430023333 C6.23529719,0.0292705414 6.72522921,-0.0989703519 7.30998678,0.0773608764 C7.9579614,0.269722216 8.19502527,0.670475008 8.27404657,0.97504713 C8.54271897,2.06509473 7.30998678,3.53986499 6.47236107,4.40549103 C6.66201218,5.15890627 6.89907605,5.94438175 7.19935697,6.66573677 C8.40048064,7.21076057 9.82286393,8.01226615 9.98090652,8.89392229 C10.0441236,9.19849442 9.949298,9.48703643 9.71223412,9.7274881 C9.50677876,9.90381932 9.28551913,10 9.04845524,10 Z M7.57865918,7.56342302 C8.17922101,8.79774162 8.74817433,9.37482564 9.04845524,9.37482564 C9.09586803,9.37482564 9.15908506,9.35879553 9.25391061,9.27864497 C9.36454043,9.16643419 9.36454043,9.08628364 9.34873617,9.02216318 C9.28551913,8.70156095 8.77978285,8.17256726 7.57865918,7.56342302 L7.57865918,7.56342302 Z M1.73108344,5.91232152 C0.956674757,5.91232152 0.735415135,6.10468287 0.6721981,6.18483343 C0.656393841,6.21689365 0.593176806,6.2970442 0.656393841,6.52146576 C0.703806617,6.7138271 0.830240687,6.90618845 1.24115142,6.90618845 C1.7468877,6.90618845 2.4738836,6.61764644 3.32731357,6.10468287 C2.71094748,5.97644197 2.17360268,5.91232152 1.73108344,5.91232152 L1.73108344,5.91232152 Z M4.86032667,5.81614086 C5.36606296,5.96041186 5.88760349,6.13674309 6.37753552,6.32910443 C6.20368868,5.86423118 6.06145034,5.38332783 5.93501628,4.9184546 C5.58732258,5.22302672 5.22382463,5.52759884 4.86032667,5.81614086 Z M6.82005476,0.638414785 C6.64620792,0.638414785 6.51977385,0.702535232 6.40914404,0.830776125 C6.07725459,1.24755903 6.04564608,2.3055464 6.29851422,3.65207577 C7.26257401,2.61011852 7.78411455,1.64831182 7.65768048,1.13534825 C7.64187622,1.05519769 7.57865918,0.830776125 7.13613994,0.702535232 C7.00970587,0.654444897 6.91488031,0.638414785 6.82005476,0.638414785 L6.82005476,0.638414785 Z" id="Shape"></path>
                    </g>
                </g>
            </g>
        </g>
    </g>
</svg>