<?xml version="1.0" encoding="UTF-8"?>
<svg width="28px" height="28px" viewBox="0 0 28 28" version="1.1" xmlns="http://www.w3.org/2000/svg" xmlns:xlink="http://www.w3.org/1999/xlink">
    <!-- Generator: Sketch 50.2 (55047) - http://www.bohemiancoding.com/sketch -->
    <title>icon_xiaoxi copy</title>
    <desc>Created with Sketch.</desc>
    <defs></defs>
    <g id="情感化/没有回答" stroke="none" stroke-width="1" fill="none" fill-rule="evenodd">
        <g id="SVG图标" transform="translate(-225.000000, -456.000000)" fill="#8590A6">
            <g id="Group" transform="translate(225.000000, 456.000000)">
                <path d="M11.0184846,7.33491226 C11.006271,7.22495845 11,7.11321156 11,7 C11,5.34314575 12.3431458,4 14,4 C15.6568542,4 17,5.34314575 17,7 C17,7.11321156 16.993729,7.22495845 16.9815154,7.33491226 C19.3215508,8.15334331 21,10.3806602 21,13 L21,15 L22,19 L6,19 L7,15 L7,13 C7,10.3806602 8.67844921,8.15334331 11.0184846,7.33491226 Z" id="Combined-Shape"></path>
                <path d="M14,23 C15.6959358,23 17.1547007,21.9911263 18,20 C18,20.4638104 9.56605026,19.4969875 10,20 C10.8529005,21.943078 12.3412027,23 14,23 Z" id="Oval-Copy"></path>
            </g>
        </g>
    </g>
</svg>