<?xml version="1.0" encoding="UTF-8"?>
<svg width="28px" height="28px" viewBox="0 0 28 28" version="1.1" xmlns="http://www.w3.org/2000/svg" xmlns:xlink="http://www.w3.org/1999/xlink">
    <!-- Generator: Sketch 50.2 (55047) - http://www.bohemiancoding.com/sketch -->
    <title>icon_sixin copy</title>
    <desc>Created with Sketch.</desc>
    <defs></defs>
    <g id="情感化/没有回答" stroke="none" stroke-width="1" fill="none" fill-rule="evenodd">
        <g id="SVG图标" transform="translate(-165.000000, -456.000000)" fill="#8590A6">
            <g id="信息" transform="translate(165.000000, 456.000000)">
                <path d="M25,13.5000661 C25,8.25335124 20.2991166,4 14.5000641,4 C8.70088342,4 4,8.25335124 4,13.5000661 C4,16.2206231 5.2663077,18.6726813 7.29207189,20.404344 C6.93597893,20.8644388 6.54476629,21.2943859 6.12207412,21.6900336 C5.67687461,22.106335 5.92291739,22.8765535 6.52072085,22.9390437 C6.87178939,22.975829 7.22839505,22.9946316 7.58887157,22.9946316 C9.63675859,22.9946316 14.4807355,23 14.5000641,23 C20.2995267,22.9996827 25,18.7466488 25,13.5000661 Z M15.0000488,12 C15.5523328,12 16,12.4476672 16,13.0000488 C16,13.5523328 15.5523328,14 15.0000488,14 C14.4476672,14 14,13.5523328 14,13.0000488 C14,12.4476672 14.4476672,12 15.0000488,12 Z M9,12 C9.55225702,12 10,12.4476672 10,13.0000488 C10,13.5523328 9.55225702,14 9,14 C8.44774298,14 8,13.5523328 8,13.0000488 C8,12.4476672 8.44774298,12 9,12 Z M20.9999847,14 C20.6427614,14 20.3126863,13.8094436 20.133977,13.4999634 C19.955341,13.1905808 19.955341,12.8093948 20.133977,12.5000122 C20.3126863,12.190532 20.6427614,12 20.9999847,12 C21.5522746,12 22,12.4476672 22,13.0000488 C22,13.5523328 21.5522746,14 20.9999847,14 Z" id="Fill-1"></path>
            </g>
        </g>
    </g>
</svg>