<?xml version="1.0" encoding="UTF-8"?>
<svg width="18px" height="18px" viewBox="0 0 18 18" version="1.1" xmlns="http://www.w3.org/2000/svg" xmlns:xlink="http://www.w3.org/1999/xlink">
    <!-- Generator: Sketch 54.1 (76490) - https://sketchapp.com -->
    <title>放大镜</title>
    <desc>Created with Sketch.</desc>
    <g id="原型" stroke="none" stroke-width="1" fill="none" fill-rule="evenodd">
        <g id="搜索" transform="translate(-963.000000, -273.000000)" fill="#97A0AF">
            <g id="编组" transform="translate(963.000000, 273.000000)">
                <path d="M12.628125,11.8125 C13.5551407,10.7099388 14.0631201,9.31548565 14.0625,7.875 C14.0625,4.45773811 11.2922619,1.6875 7.875,1.6875 C4.45773811,1.6875 1.6875,4.45773811 1.6875,7.875 C1.6875,11.2922619 4.45773811,14.0625 7.875,14.0625 C9.31548565,14.0631201 10.7099388,13.5551407 11.8125,12.628125 L16.081875,16.875 L16.875,16.081875 L12.628125,11.8125 Z M7.875,12.9375 C5.07905845,12.9375 2.8125,10.6709415 2.8125,7.875 C2.8125,5.07905845 5.07905845,2.8125 7.875,2.8125 C10.6709415,2.8125 12.9375,5.07905845 12.9375,7.875 C12.9375,10.6709415 10.6709415,12.9375 7.875,12.9375 L7.875,12.9375 Z" id="形状结合"></path>
            </g>
        </g>
    </g>
</svg>