<?xml version="1.0" encoding="UTF-8"?>
<svg width="16px" height="16px" viewBox="0 0 16 16" version="1.1" xmlns="http://www.w3.org/2000/svg" xmlns:xlink="http://www.w3.org/1999/xlink">
    <!-- Generator: Sketch 58 (84663) - https://sketch.com -->
    <title>分享1</title>
    <desc>Created with Sketch.</desc>
    <g id="首页" stroke="none" stroke-width="1" fill="none" fill-rule="evenodd">
        <g id="阅读全文" transform="translate(-542.000000, -1046.000000)" fill="#9AA5BB">
            <g id="编组-2" transform="translate(360.000000, 1027.000000)">
                <g id="icon/基础图标/详情复制-8备份-2" transform="translate(182.000000, 19.000000)">
                    <g id="编组">
                        <path d="M12.0021797,10.0056952 C11.2448487,10.009502 10.5301534,10.3566914 10.0590971,10.9496188 L6.40770025,8.66722155 C6.54077707,8.2377933 6.54077707,7.77815334 6.40770025,7.34872509 L10.0590971,5.06632781 C10.8243215,6.01372363 12.1614236,6.27108411 13.2237366,5.67544595 C14.2860497,5.07980779 14.7637425,3.80489308 14.3543352,2.65799086 C13.9449279,1.51108865 12.7678269,0.826701078 11.5683847,1.03818936 C10.3689425,1.24967765 9.49698483,2.29535974 9.50464423,3.51309903 C9.50700235,3.73643379 9.54062937,3.95833806 9.60454565,4.17234726 L5.9531488,6.45474454 C5.29242637,5.62310837 4.17787456,5.30033657 3.17489649,5.65016868 C2.17191843,6 1.5,6.94588155 1.5,8.00797332 C1.5,9.07006509 2.17191843,10.0159459 3.17489649,10.365778 C4.17787456,10.7156101 5.29242637,10.3928383 5.9531488,9.5612021 L9.60454565,11.8435994 C9.54062937,12.0576086 9.50700235,12.2795129 9.50464423,12.5028476 C9.50464423,13.8819868 10.6228289,15 12.0021797,15 C13.3815304,15 14.4997152,13.8819868 14.4997152,12.5028476 C14.4997152,11.1237084 13.3815304,10.0056952 12.0021797,10.0056952 Z" id="形状"></path>
                    </g>
                </g>
            </g>
        </g>
    </g>
</svg>